<svg xmlns="http://www.w3.org/2000/svg" width="55" height="55" viewBox="0 0 55 55">
  <g id="beuty" transform="translate(0.5)">
    <circle id="Ellipse_26" data-name="Ellipse 26" cx="27.5" cy="27.5" r="27.5" transform="translate(-0.5)" fill="#f4f4f7"/>
    <g id="make-up" transform="translate(12.713 13.065)">
      <g id="Group_83" data-name="Group 83" transform="translate(13.141 16.856)">
        <g id="Group_82" data-name="Group 82">
          <path id="Path_174" data-name="Path 174" d="M237.393,292.974a.575.575,0,0,0-.767.272l-.1.2a.575.575,0,1,0,1.039.495l.1-.2A.575.575,0,0,0,237.393,292.974Z" transform="translate(-236.475 -292.918)" fill="#e66a40"/>
        </g>
      </g>
      <g id="Group_85" data-name="Group 85" transform="translate(4.086 13.409)">
        <g id="Group_84" data-name="Group 84">
          <path id="Path_175" data-name="Path 175" d="M82.648,233.193a.575.575,0,0,0-.814,0,1.225,1.225,0,0,1-1.73,0,.575.575,0,1,0-.814.814,2.377,2.377,0,0,0,3.357,0A.575.575,0,0,0,82.648,233.193Z" transform="translate(-79.122 -233.025)" fill="#e66a40"/>
        </g>
      </g>
      <g id="Group_87" data-name="Group 87" transform="translate(0 0)">
        <g id="Group_86" data-name="Group 86" transform="translate(0 0)">
          <path id="Path_176" data-name="Path 176" d="M35.123,1.529a5.221,5.221,0,0,0-7.355-.019A13.845,13.845,0,0,0,25.747.7,14.845,14.845,0,0,0,21.341,0C18.22,0,15.5,1.313,14.235,3.42a5.308,5.308,0,0,0-.417.863,10.653,10.653,0,0,0-3.279,7.273,5.519,5.519,0,0,1-2.011,4.569,1.058,1.058,0,0,0,.13,1.758c.283.159.6.312.909.459.272.131.659.316.847.437V19.8a1.077,1.077,0,0,1-.08.407l-.143.351a1.484,1.484,0,0,0,.187,1.445v.126a1.253,1.253,0,0,0,.438.953v.675a2.628,2.628,0,0,0,2.625,2.625h1.7a.575.575,0,0,0,0-1.151h-1.7a1.476,1.476,0,0,1-1.475-1.475V22.77a.575.575,0,0,0-.35-.529l-.025-.011a.1.1,0,0,1-.064-.1v-.325a.576.576,0,0,0-.123-.356l-.1-.129A.331.331,0,0,1,11.259,21l.143-.351a2.222,2.222,0,0,0,.164-.84V18.579c0-.554-.565-.825-1.5-1.274-.246-.118-.5-.239-.722-.359a6.676,6.676,0,0,0,2.347-5.391,8.9,8.9,0,0,1,1.8-5.121,7.306,7.306,0,0,0,.91,3.1c1.476,2.761,4.048,3.919,6.113,4.849,1.966.885,3.078,1.442,3.087,2.6a2.5,2.5,0,0,1-.581,1.859,1.6,1.6,0,0,1-1.057.431.565.565,0,0,0-.492.224.575.575,0,0,0-.081.539,8.328,8.328,0,0,0,1.357,2.33,5.537,5.537,0,0,0,4.279,2.166l1.546,4.532a.575.575,0,0,0,1.089-.371L28.136,24.23a11.85,11.85,0,0,0,5.85-6.928,13.952,13.952,0,0,0,.156-7.628,5.216,5.216,0,0,0,.981-8.145ZM32.89,16.951a10.772,10.772,0,0,1-5.609,6.427,4.338,4.338,0,0,1-3.629-1.721,7.334,7.334,0,0,1-.894-1.364,2.639,2.639,0,0,0,1.045-.611,3.556,3.556,0,0,0,.947-2.709c-.015-1.952-1.837-2.772-3.765-3.64-2.006-.9-4.28-1.926-5.571-4.342a5.2,5.2,0,0,1-.564-4.179l.005-.014a4.2,4.2,0,0,1,.368-.787c1.057-1.764,3.4-2.859,6.126-2.859h.017A13.78,13.78,0,0,1,25.4,1.8a10.58,10.58,0,0,1,6.431,5.1A13.153,13.153,0,0,1,32.89,16.951ZM33.8,8.524a14.429,14.429,0,0,0-.951-2.176A11.308,11.308,0,0,0,28.827,2.1,4.064,4.064,0,1,1,33.8,8.524Z" transform="translate(-8.12 0)" fill="#e66a40"/>
        </g>
      </g>
      <g id="Group_89" data-name="Group 89" transform="translate(6.192 18.299)">
        <g id="Group_88" data-name="Group 88">
          <path id="Path_177" data-name="Path 177" d="M124.29,326.654l-1.8-3.122-.061-2.132a3.493,3.493,0,0,0-3.212-3.385,3.191,3.191,0,0,0-3.128,1.806l-.028.06a3.509,3.509,0,0,0,1.251,4.426l1.794,1.17,1.96,3.395a.575.575,0,0,0,1-.575l-1.741-3.016.694-.4.694-.4,1.587,2.749a.575.575,0,0,0,1-.575Zm-4.739-2.258-1.614-1.052a2.355,2.355,0,0,1-.839-2.97l.028-.06a2.037,2.037,0,0,1,1.833-1.158q.081,0,.162.007a2.343,2.343,0,0,1,2.155,2.271l.055,1.934Z" transform="translate(-115.724 -318.005)" fill="#e66a40"/>
        </g>
      </g>
      <g id="Group_91" data-name="Group 91" transform="translate(14.638 28.312)">
        <g id="Group_90" data-name="Group 90">
          <path id="Path_178" data-name="Path 178" d="M263.472,492.175a.575.575,0,1,0,.169.407A.579.579,0,0,0,263.472,492.175Z" transform="translate(-262.49 -492.006)" fill="#e66a40"/>
        </g>
      </g>
      <g id="Group_93" data-name="Group 93" transform="translate(7.917 3.023)">
        <g id="Group_92" data-name="Group 92" transform="translate(0)">
          <path id="Path_179" data-name="Path 179" d="M148.7,52.883a.575.575,0,0,0-.755-.3,3.348,3.348,0,0,0-1.719,4.967A.575.575,0,0,0,147.236,57a2.431,2.431,0,0,1-.271-1.985,2.465,2.465,0,0,1,1.427-1.382A.575.575,0,0,0,148.7,52.883Z" transform="translate(-145.708 -52.534)" fill="#e66a40"/>
        </g>
      </g>
      <g id="Group_95" data-name="Group 95" transform="translate(11.704 2.647)">
        <g id="Group_94" data-name="Group 94">
          <path id="Path_180" data-name="Path 180" d="M212.12,46h-.032a.575.575,0,0,0,0,1.151h.029a.575.575,0,1,0,0-1.151Z" transform="translate(-211.516 -46.003)" fill="#e66a40"/>
        </g>
      </g>
    </g>
  </g>
</svg>
