<svg xmlns="http://www.w3.org/2000/svg" width="54.499" height="54.465" viewBox="0 0 54.499 54.465">
  <g id="camera" transform="translate(0 -0.159)">
    <g id="XMLID_176_" transform="translate(0 0.159)">
      <path id="XMLID_178_" d="M205.418,211.841a13.335,13.335,0,0,0-5.166,1.031,1.064,1.064,0,1,0,.821,1.964A11.273,11.273,0,1,1,195,220.913a1.064,1.064,0,0,0-1.965-.82,13.414,13.414,0,1,0,12.383-8.253Z" transform="translate(-171.568 -189.309)" fill="#7eade5"/>
      <path id="XMLID_711_" d="M244.734,273.3a8.728,8.728,0,1,0-8.728-8.728A8.738,8.738,0,0,0,244.734,273.3Zm0-15.328a6.6,6.6,0,1,1-6.6,6.6A6.607,6.607,0,0,1,244.734,257.97Z" transform="translate(-210.885 -228.625)" fill="#7eade5"/>
      <path id="XMLID_714_" d="M49.1,106.653H45.863l-3.716-6.289a1.064,1.064,0,0,0-.916-.523H26.47a1.064,1.064,0,0,0-.916.523l-3.716,6.289H15.754v-1.277a3.832,3.832,0,1,0-7.664,0v1.277H5.4a5.4,5.4,0,0,0-5.4,5.4V138.3a5.4,5.4,0,0,0,5.4,5.4H49.1a5.4,5.4,0,0,0,5.4-5.4V112.052a5.4,5.4,0,0,0-5.4-5.4ZM27.077,101.97H40.622l2.768,4.684H24.309Zm-16.858,3.406a1.7,1.7,0,0,1,3.406,0v1.277H10.219ZM52.37,138.3a3.273,3.273,0,0,1-3.27,3.27H5.4a3.273,3.273,0,0,1-3.27-3.27V112.052a3.273,3.273,0,0,1,3.27-3.27H49.1a3.273,3.273,0,0,1,3.27,3.27V138.3Z" transform="translate(0 -89.23)" fill="#7eade5"/>
      <path id="XMLID_717_" d="M309.07,300.47a2.078,2.078,0,0,1,2.076,2.076,1.064,1.064,0,1,0,2.129,0,4.209,4.209,0,0,0-4.2-4.2,1.064,1.064,0,1,0,0,2.129Z" transform="translate(-275.221 -266.601)" fill="#7eade5"/>
      <path id="XMLID_718_" d="M309.07,7.969A1.064,1.064,0,0,0,310.135,6.9V1.223a1.064,1.064,0,0,0-2.129,0V6.9A1.064,1.064,0,0,0,309.07,7.969Z" transform="translate(-275.221 -0.159)" fill="#7eade5"/>
      <path id="XMLID_719_" d="M356.656,22.875a1.061,1.061,0,0,0,.753-.312l3.906-3.906a1.065,1.065,0,0,0-1.505-1.505L355.9,21.058a1.064,1.064,0,0,0,.753,1.817Z" transform="translate(-317.741 -15.065)" fill="#7eade5"/>
      <path id="XMLID_720_" d="M227.948,22.565a1.065,1.065,0,0,0,1.505-1.505l-3.906-3.906a1.065,1.065,0,0,0-1.505,1.505Z" transform="translate(-199.916 -15.067)" fill="#7eade5"/>
      <path id="XMLID_730_" d="M82.6,245.841H77.064a1.064,1.064,0,1,0,0,2.129H82.6a1.064,1.064,0,1,0,0-2.129Z" transform="translate(-67.91 -219.69)" fill="#7eade5"/>
      <path id="XMLID_731_" d="M227.024,247.969a1.065,1.065,0,1,0-.753-.312A1.072,1.072,0,0,0,227.024,247.969Z" transform="translate(-201.908 -219.689)" fill="#7eade5"/>
    </g>
  </g>
</svg>
