<svg xmlns="http://www.w3.org/2000/svg" xmlns:xlink="http://www.w3.org/1999/xlink" width="114" height="114" viewBox="0 0 114 114">
  <defs>
    <filter id="Rectangle_7" x="0" y="0" width="114" height="114" filterUnits="userSpaceOnUse">
      <feOffset dy="5" input="SourceAlpha"/>
      <feGaussianBlur stdDeviation="10" result="blur"/>
      <feFlood flood-color="#4a388a" flood-opacity="0.361"/>
      <feComposite operator="in" in2="blur"/>
      <feComposite in="SourceGraphic"/>
    </filter>
  </defs>
  <g id="chat" transform="translate(30 25)">
    <g transform="matrix(1, 0, 0, 1, -30, -25)" filter="url(#Rectangle_7)">
      <path id="Rectangle_7-2" data-name="Rectangle 7" d="M27,0A27,27,0,1,1,0,27,27,27,0,0,1,27,0Z" transform="translate(30 25)" fill="#fe6833"/>
    </g>
    <g id="chat_1_" data-name="chat (1)" transform="translate(12.634 15)">
      <g id="Group_1456" data-name="Group 1456" transform="translate(3.366)">
        <g id="Group_1455" data-name="Group 1455" transform="translate(0)">
          <path id="Path_1525" data-name="Path 1525" d="M14.919,0c-.006.006-.019.006-.038.006A11.49,11.49,0,0,0,5.87,18.657L4.194,22.548a.625.625,0,0,0,.326.822.638.638,0,0,0,.358.044l6.144-1.079A11.072,11.072,0,0,0,14.85,23a11.5,11.5,0,0,0,.069-23Zm-.063,21.751a10.074,10.074,0,0,1-3.546-.646.6.6,0,0,0-.333-.031l-5.171.9L7.175,18.8a.631.631,0,0,0-.1-.659,10.033,10.033,0,0,1-1.745-2.9,10.246,10.246,0,1,1,19.787-3.79v.038A10.274,10.274,0,0,1,14.857,21.751Z" transform="translate(-3.366)" fill="#fcfcfc"/>
        </g>
      </g>
      <g id="Group_1458" data-name="Group 1458" transform="translate(10.351 9.206)">
        <g id="Group_1457" data-name="Group 1457">
          <path id="Path_1526" data-name="Path 1526" d="M118.682,146.7h-3.389a.628.628,0,1,0,0,1.255h3.389a.628.628,0,0,0,0-1.255Z" transform="translate(-114.666 -146.7)" fill="#fcfcfc"/>
        </g>
      </g>
      <g id="Group_1460" data-name="Group 1460" transform="translate(10.351 12.344)">
        <g id="Group_1459" data-name="Group 1459">
          <path id="Path_1527" data-name="Path 1527" d="M123.075,196.7h-7.782a.628.628,0,1,0,0,1.255h7.782a.628.628,0,1,0,0-1.255Z" transform="translate(-114.666 -196.7)" fill="#fcfcfc"/>
        </g>
      </g>
    </g>
  </g>
</svg>
