<svg xmlns="http://www.w3.org/2000/svg" width="55" height="55" viewBox="0 0 55 55">
  <g id="clothes" transform="translate(-37.333 -132)">
    <circle id="Ellipse_25" data-name="Ellipse 25" cx="27.5" cy="27.5" r="27.5" transform="translate(37.333 132)" fill="#f4f4f7"/>
    <g id="shirt" transform="translate(51.072 144.716)">
      <g id="Group_80" data-name="Group 80" transform="translate(0 0)">
        <path id="Path_172" data-name="Path 172" d="M51.427,12.329,47.81,4.409a2.963,2.963,0,0,0-1.549-1.6.579.579,0,0,0-.064-.027L43.4,1.781a.573.573,0,0,0-.2-.48L41.813.135a.571.571,0,0,0-.675-.046L41.09.11a6.307,6.307,0,0,1-2.811.656A6.306,6.306,0,0,1,35.467.11C35.451.1,35.435.1,35.419.089a.571.571,0,0,0-.675.046L33.362,1.3a.574.574,0,0,0-.2.48l-2.8,1.006a.58.58,0,0,0-.064.027,2.962,2.962,0,0,0-1.549,1.6l-3.618,7.92a.574.574,0,0,0,.218.725l4.322,2.7V28.707a.574.574,0,0,0,.574.574H35.7a.574.574,0,0,0,0-1.148H30.817V10.846a.574.574,0,1,0-1.148,0V14.4l-3.286-2.054,3.408-7.462a1.825,1.825,0,0,1,.99-1.031l2.642-.949,1.234,5.1a.574.574,0,0,0,.856.356l1.044-.634v4.72a.574.574,0,0,0,.574.574h2.3A.574.574,0,0,0,40,12.452V7.732l1.044.634A.574.574,0,0,0,41.9,8.01l1.234-5.1,2.642.949a1.825,1.825,0,0,1,.99,1.031l3.408,7.462L46.888,14.4V10.846a.574.574,0,0,0-1.148,0V28.133H40.861a.574.574,0,0,0,0,1.148h5.453a.574.574,0,0,0,.574-.574V15.756l4.322-2.7a.574.574,0,0,0,.218-.725ZM40.135,1.681,38.278,4.874,36.422,1.681a7.546,7.546,0,0,0,1.857.233,7.543,7.543,0,0,0,1.857-.233Zm-5.762.268.589-.5L37.5,5.817l-1.911,1.16Zm4.48,9.928H37.7V7.035l.574-.348.574.348Zm2.116-4.9-1.911-1.16L41.6,1.453l.589.5Z" transform="translate(-25.077 0)" fill="#ca212a"/>
        <path id="Path_173" data-name="Path 173" d="M245.65,490.158h0a.574.574,0,1,0,.574.574A.574.574,0,0,0,245.65,490.158Z" transform="translate(-232.449 -462.025)" fill="#ca212a"/>
      </g>
    </g>
  </g>
</svg>
