<svg xmlns="http://www.w3.org/2000/svg" width="26.226" height="27.454" viewBox="0 0 26.226 27.454">
  <g id="compliant" transform="translate(-11.448 0)">
    <g id="Group_69476" data-name="Group 69476" transform="translate(11.448 0)">
      <path id="Path_74863" data-name="Path 74863" d="M140.944,222.526h2.3a.4.4,0,1,0,0-.8h-2.3a.4.4,0,1,0,0,.8Z" transform="translate(-133.62 -209.833)"/>
      <path id="Path_74864" data-name="Path 74864" d="M140.944,258.874H150.3a.4.4,0,1,0,0-.8h-9.355a.4.4,0,1,0,0,.8Z" transform="translate(-133.62 -244.232)"/>
      <path id="Path_74865" data-name="Path 74865" d="M271.4,294.417H268.9a.4.4,0,1,0,0,.8H271.4a.4.4,0,1,0,0-.8Z" transform="translate(-254.717 -278.63)"/>
      <path id="Path_74866" data-name="Path 74866" d="M37.155,2.7,31.95.1a.943.943,0,0,0-.839,0L25.905,2.7h0a.933.933,0,0,0-.519.839v.748H19.735a.4.4,0,1,0,0,.8h5.651V6.315a10.245,10.245,0,0,0,.132,1.676H18.772a.4.4,0,1,0,0,.8h6.918a7.867,7.867,0,0,0,.4,1.145H18.772a.4.4,0,1,0,0,.8H26.5a7.912,7.912,0,0,0,.465.7q.166.225.352.444H22.684a.4.4,0,1,0,0,.8h5.4a17.939,17.939,0,0,0,2.954,2.173.936.936,0,0,0,.981,0l.122-.075v9.766H21.621v-.75a.4.4,0,0,0-.8,0v2.708a.134.134,0,0,1-.134.134h-8.3a.134.134,0,0,1-.134-.134V20.723a.134.134,0,0,1,.134-.134h8.3a.134.134,0,0,1,.134.134v1.208a.4.4,0,1,0,.8,0V20.723a.934.934,0,0,0-.031-.234h6.537a.4.4,0,1,0,0-.8h-7.8V18.541h7.8a.4.4,0,1,0,0-.8H20.312a3.764,3.764,0,0,0-.291-1.145h4.165a.4.4,0,0,0,0-.8H19.549a3.787,3.787,0,0,0-4.793-1.051V5.092h3.1a.4.4,0,0,0,0-.8H14.623a.671.671,0,0,0-.67.67V15.311a3.784,3.784,0,0,0-1.212,2.777v1.7h-.354a.939.939,0,0,0-.938.938v5.793a.939.939,0,0,0,.938.938h8.3a.939.939,0,0,0,.938-.938V25.362H32.277a.671.671,0,0,0,.67-.67V14.275a12.252,12.252,0,0,0,3.147-2.83,8.3,8.3,0,0,0,1.58-5.13V3.54a.933.933,0,0,0-.519-.839ZM17.916,19.785H15.153v-1.7a1.381,1.381,0,1,1,2.763,0v1.7Zm-4.371-1.7a2.99,2.99,0,1,1,5.98,0v1.7h-.8v-1.7a2.186,2.186,0,0,0-4.371,0v1.7h-.8ZM36.87,6.315c0,3.865-2.016,5.875-5.269,7.865a.137.137,0,0,1-.142,0c-3.253-1.99-5.269-4-5.269-7.865V3.54a.133.133,0,0,1,.074-.12L31.47.818a.135.135,0,0,1,.12,0L36.8,3.42a.133.133,0,0,1,.074.12V6.315Z" transform="translate(-11.448 0)"/>
      <path id="Path_74867" data-name="Path 74867" d="M313.7,52.13a4.07,4.07,0,1,0,3.834,5.436.4.4,0,0,0-.758-.27,3.267,3.267,0,1,1,.138-1.671.4.4,0,0,0,.792-.141A4.062,4.062,0,0,0,313.7,52.13Z" transform="translate(-293.637 -49.335)"/>
      <path id="Path_74868" data-name="Path 74868" d="M355.192,105.424l-1.585,1.585-.921-.921a.4.4,0,0,0-.569.569l1.206,1.206a.4.4,0,0,0,.569,0l1.869-1.869a.4.4,0,0,0-.569-.569Z" transform="translate(-333.738 -99.659)"/>
    </g>
  </g>
</svg>
