

<svg xmlns="http://www.w3.org/2000/svg" width="16.949" height="26.202" viewBox="0 0 16.949 26.202">
  <g id="delivery-man" transform="translate(-90.4 0)">
    <g id="Group_15073" data-name="Group 15073" transform="translate(98.363 25.178)">
      <path id="Path_26902" data-name="Path 26902" d="M246.527,493.023h0a.512.512,0,1,1,.512-.512A.512.512,0,0,1,246.526,493.023Z" transform="translate(-246.014 -492)"/>
    </g>
    <path id="Path_26903" data-name="Path 26903" d="M106.963,18.9v-2.04s0-.006,0-.008a3.7,3.7,0,0,0-1.633-3.21,10.066,10.066,0,0,0-3.111-1.214c-.31-.084-.609-.164-.9-.25V11.09a4.386,4.386,0,0,0,1.937-3.637V6.9a1.607,1.607,0,0,0,.321-2.255V2.6a2.6,2.6,0,0,0-2.6-2.6H96.766a2.6,2.6,0,0,0-2.6,2.6V4.65A1.608,1.608,0,0,0,94.489,6.9v.548a4.385,4.385,0,0,0,1.937,3.637v1.083c-.287.086-.585.166-.9.25a10.066,10.066,0,0,0-3.111,1.214,3.7,3.7,0,0,0-1.633,3.21s0,.006,0,.008V18.9a1.327,1.327,0,0,0-.386.936v1.456a1.333,1.333,0,0,0,1.331,1.331h1.275c.067,0,.134,0,.2-.01v2.385A1.207,1.207,0,0,0,94.41,26.2h2.166a.512.512,0,1,0,0-1.023H94.41a.185.185,0,0,1-.182-.183V22.217a2.057,2.057,0,0,0,0-3.312V17.365a.184.184,0,0,1,.182-.182H96.8V20.3a.512.512,0,0,0,.8.424l1.279-.862,1.278.862a.512.512,0,0,0,.8-.424V17.183h2.388a.185.185,0,0,1,.183.182V18.9a2.057,2.057,0,0,0,0,3.314V25a.186.186,0,0,1-.183.183h-2.166a.512.512,0,0,0,0,1.023h2.166A1.208,1.208,0,0,0,104.545,25V22.61c.065.006.131.01.2.01h1.275a1.333,1.333,0,0,0,1.331-1.331V19.832a1.327,1.327,0,0,0-.386-.936ZM95.192,2.6a1.576,1.576,0,0,1,1.574-1.574h4.217A1.576,1.576,0,0,1,102.557,2.6V3.744a6.451,6.451,0,0,0-7.365,0Zm-.15,3.436a.59.59,0,0,1,0-.833h0a5.42,5.42,0,0,1,7.665,0h0a.588.588,0,0,1-.831.833,4.242,4.242,0,0,0-6,0A.592.592,0,0,1,95.042,6.033Zm.47,1.419V7.226A1.609,1.609,0,0,0,96.6,6.757a3.219,3.219,0,0,1,4.554,0,1.607,1.607,0,0,0,1.084.468v.227a3.362,3.362,0,1,1-6.724,0ZM100.3,11.6v.949a1.425,1.425,0,0,1-2.851,0V11.6a4.368,4.368,0,0,0,2.851,0Zm-8.569,10a.308.308,0,0,1-.308-.308V19.832a.308.308,0,0,1,.308-.308h1.275a1.036,1.036,0,1,1,0,2.072Zm8.2-2.261-.766-.516a.512.512,0,0,0-.572,0l-.767.517V17.183h2.105Zm3.411-3.176H94.41a1.206,1.206,0,0,0-1.205,1.205v1.146c-.066-.006-.132-.01-.2-.01h-1.2V16.86A2.71,2.71,0,0,1,93,14.479a9.354,9.354,0,0,1,2.8-1.069c.239-.064.481-.13.721-.2a2.448,2.448,0,0,0,4.714,0c.24.069.483.135.721.2a9.352,9.352,0,0,1,2.8,1.069,2.71,2.71,0,0,1,1.19,2.381V18.5h-1.2c-.067,0-.133,0-.2.01V17.365a1.207,1.207,0,0,0-1.207-1.205Zm2.987,5.129a.308.308,0,0,1-.308.308h-1.275a1.028,1.028,0,0,1-.46-.109l-.038-.019a1.036,1.036,0,0,1,.5-1.944h1.275a.308.308,0,0,1,.308.308v1.456Z"/>
  </g>
</svg>
