<svg xmlns="http://www.w3.org/2000/svg" width="59" height="78" viewBox="0 0 59 78">
  <g id="electric" transform="translate(-45 -121)">
    <text id="كهرومنزلية" transform="translate(45 194)" fill="#7a7a7a" font-size="13" font-family="Tajawal-Regular, Tajawal"><tspan x="0" y="0">كهرومنزلية</tspan></text>
    <circle id="Ellipse_2" data-name="Ellipse 2" cx="27.5" cy="27.5" r="27.5" transform="translate(46 121)" fill="#f5f5f5"/>
    <g id="appliances" transform="translate(60.999 136)">
      <path id="Path_74758" data-name="Path 74758" d="M23.852,10.96H19.521V6.995h3.548a1.15,1.15,0,0,0,1.149-1.149v-4.7A1.15,1.15,0,0,0,23.069,0H15.241a1.15,1.15,0,0,0-1.149,1.149V3.131h-2.4v-1.2A1.934,1.934,0,0,0,9.761,0H1.932A1.934,1.934,0,0,0,0,1.932V23.851A1.15,1.15,0,0,0,1.15,25h9.394a1.15,1.15,0,0,0,1.149-1.149V18.346h1.616v5.505A1.15,1.15,0,0,0,14.458,25h9.394A1.15,1.15,0,0,0,25,23.851V12.109a1.15,1.15,0,0,0-1.149-1.149Zm.417,1.149v1.982h-3.26a1.149,1.149,0,1,0-2.141,0h-.912v-1.2a.366.366,0,0,0-.366-.366H15.241a.366.366,0,0,0-.366.366v1.2h-.833V12.109a.417.417,0,0,1,.417-.417h9.394a.417.417,0,0,1,.417.417Zm-4.747,1.566a.417.417,0,1,1,.417.417A.417.417,0,0,1,19.521,13.674Zm-3.914.417v-.833h1.616v.833Zm7.462-7.828h-1.2V3.081h1.616V5.846a.417.417,0,0,1-.417.417Zm.417-5.114v1.2H21.87V.732h1.2a.417.417,0,0,1,.417.417Zm-8.662,0a.417.417,0,0,1,.417-.417h5.9v5.53h-5.9a.417.417,0,0,1-.417-.417ZM.733,16.389h.808a.025.025,0,0,1,.025.025v2.74a.025.025,0,0,1-.025.025H.733Zm0-6.654h.808a.025.025,0,0,1,.025.025V12.5a.025.025,0,0,1-.025.025H.733ZM10.96,23.851a.417.417,0,0,1-.417.417H1.15a.417.417,0,0,1-.417-.417V19.912h.808a.758.758,0,0,0,.758-.758v-2.74a.758.758,0,0,0-.758-.758H.733v-.833H8.978a.366.366,0,1,0,0-.732H.733v-.833h.808A.758.758,0,0,0,2.3,12.5V9.76A.758.758,0,0,0,1.541,9H.733V1.932a1.2,1.2,0,0,1,1.2-1.2H9.761a1.2,1.2,0,0,1,1.2,1.2V14.091h-.416a.366.366,0,0,0,0,.732h.416v9.028Zm.732-6.237V3.864h2.4V5.846a1.15,1.15,0,0,0,1.149,1.149h3.548V10.96H14.458a1.15,1.15,0,0,0-1.149,1.149v5.505Zm12.159,6.654H14.458a.417.417,0,0,1-.417-.417V14.823H24.268v9.028a.417.417,0,0,1-.417.417Zm0,0" fill="#068f01"/>
      <path id="Path_74759" data-name="Path 74759" d="M90.5,64.129H88.934a.759.759,0,0,0-.758.758v.783a.758.758,0,0,0,.758.758H90.5a.758.758,0,0,0,.758-.758v-.783A.758.758,0,0,0,90.5,64.129Zm.025,1.54a.025.025,0,0,1-.025.025H88.934a.025.025,0,0,1-.025-.025v-.783a.025.025,0,0,1,.025-.025H90.5a.025.025,0,0,1,.025.025Zm0,0" transform="translate(-83.87 -60.998)" fill="#068f01"/>
      <path id="Path_74760" data-name="Path 74760" d="M441.253,257.248h1.174a.366.366,0,0,0,0-.732h-1.174a.366.366,0,0,0,0,.732Zm0,0" transform="translate(-419.358 -243.991)" fill="#068f01"/>
      <path id="Path_74761" data-name="Path 74761" d="M324.142,328.66a3.5,3.5,0,1,0,3.5,3.5A3.5,3.5,0,0,0,324.142,328.66Zm0,6.263a2.765,2.765,0,1,1,2.765-2.765A2.768,2.768,0,0,1,324.142,334.923Zm0,0" transform="translate(-304.987 -312.612)" fill="#068f01"/>
      <path id="Path_74762" data-name="Path 74762" d="M356.067,361.912a.366.366,0,0,0-.263.446,1.2,1.2,0,1,1-.861-.861.366.366,0,0,0,.183-.709,1.93,1.93,0,1,0,1.388,1.388A.367.367,0,0,0,356.067,361.912Zm0,0" transform="translate(-335.488 -343.113)" fill="#068f01"/>
      <path id="Path_74763" data-name="Path 74763" d="M321.011,35.926h3.914a.366.366,0,0,0,.366-.366V32.428a.366.366,0,0,0-.366-.366h-.783a.366.366,0,0,0,0,.732h.417v2.4h-3.182v-2.4h1.2a.366.366,0,0,0,0-.732h-1.566a.366.366,0,0,0-.366.366V35.56A.366.366,0,0,0,321.011,35.926Zm0,0" transform="translate(-304.988 -30.497)" fill="#068f01"/>
    </g>
  </g>
</svg>
