<svg xmlns="http://www.w3.org/2000/svg" width="55" height="55" viewBox="0 0 55 55">
  <g id="gift" transform="translate(-211 -472)">
    <circle id="Ellipse_29" data-name="Ellipse 29" cx="27.5" cy="27.5" r="27.5" transform="translate(211 472)" fill="#f4f4f7"/>
    <g id="gift-box" transform="translate(216.987 468.21)">
      <path id="Path_74743" data-name="Path 74743" d="M28.456,73.35H10.66l15.41-9.8a.4.4,0,0,0,.124-.558l-1.527-2.4a2.446,2.446,0,0,0-3.373-.751L19.126,61.22,19.3,60.4a2.313,2.313,0,1,0-4.516-1.005l-1.127,5.06-3.772-.84A2.313,2.313,0,0,0,8.467,68L6.144,69.474a2.446,2.446,0,0,0-.751,3.373l1.527,2.4a.4.4,0,0,0,.558.124l1.421-.9V84.71a2.446,2.446,0,0,0,2.444,2.443H26.417A2.446,2.446,0,0,0,28.86,84.71V73.755a.4.4,0,0,0-.4-.4ZM21.729,60.524a1.624,1.624,0,0,1,.874-.256,1.651,1.651,0,0,1,.358.04,1.624,1.624,0,0,1,1.024.719l1.31,2.06-6.371,4.051L16.737,63.7Zm-6.157-.956a1.5,1.5,0,0,1,2.936.659l-.332,1.589-3.618,2.309Zm.483,4.564,2.187,3.439-3.692,2.347-2.187-3.439ZM8.111,66.678a1.5,1.5,0,0,1,1.6-2.276l3.269.728L9.348,67.405l-.294-.066A1.5,1.5,0,0,1,8.111,66.678Zm-.725,7.795-1.31-2.06a1.636,1.636,0,0,1,.5-2.256l5.1-3.243,2.187,3.439ZM15.23,86.344H11.343A1.636,1.636,0,0,1,9.709,84.71V74.159H15.23Zm5.142,0H16.039V74.159h4.333Zm7.68-1.634a1.636,1.636,0,0,1-1.634,1.634H21.181V74.159h6.871Z" transform="translate(0 -38.974)" fill="#2ba8c2"/>
      <path id="Path_74744" data-name="Path 74744" d="M367.891,214.823l.193-1.128a.4.4,0,0,0-.587-.426l-1.013.533-1.013-.533a.4.4,0,0,0-.587.426l.194,1.128-.82.8a.4.4,0,0,0,.224.69l1.133.165.507,1.026a.4.4,0,0,0,.726,0l.507-1.026,1.133-.165a.4.4,0,0,0,.224-.69Zm-.864.883a.4.4,0,0,0-.3.221l-.238.482-.238-.482a.4.4,0,0,0-.3-.221l-.532-.077.385-.375a.4.4,0,0,0,.116-.358l-.091-.53.476.25a.4.4,0,0,0,.376,0l.476-.25-.091.53a.4.4,0,0,0,.116.358l.385.375Z" transform="translate(-334.912 -184.121)" fill="#2ba8c2"/>
      <path id="Path_74745" data-name="Path 74745" d="M428.38,132.164l-1.112-.27-.408-1.069a.4.4,0,0,0-.722-.068l-.6.974-1.143.058a.4.4,0,0,0-.288.666l.741.872-.3,1.1a.4.4,0,0,0,.544.48l1.058-.435.959.625a.4.4,0,0,0,.624-.369l-.087-1.141.891-.718a.4.4,0,0,0-.158-.708Zm-1.406.93a.4.4,0,0,0-.149.346l.04.536-.45-.294a.4.4,0,0,0-.375-.035l-.5.2.14-.519a.4.4,0,0,0-.082-.367l-.348-.41.537-.027a.4.4,0,0,0,.324-.192l.282-.458.192.5a.4.4,0,0,0,.282.249l.523.127Z" transform="translate(-390.749 -107.036)" fill="#2ba8c2"/>
      <path id="Path_74746" data-name="Path 74746" d="M389.015,18.552l-.3,1.1a.4.4,0,0,0,.544.48l1.058-.435.959.626a.4.4,0,0,0,.624-.369l-.087-1.141.891-.719a.4.4,0,0,0-.158-.708l-1.112-.27-.408-1.07a.4.4,0,0,0-.722-.068l-.6.974-1.143.057a.4.4,0,0,0-.288.666Zm.943-.8a.4.4,0,0,0,.324-.192l.282-.458.192.5a.4.4,0,0,0,.282.249l.522.127-.419.337a.4.4,0,0,0-.149.346l.04.536-.45-.294a.4.4,0,0,0-.375-.035l-.5.2.14-.519a.4.4,0,0,0-.082-.367l-.348-.41Z" transform="translate(-357.333 0)" fill="#2ba8c2"/>
      <path id="Path_74747" data-name="Path 74747" d="M271.814,227.3a4.652,4.652,0,0,0-1.378,1.3.4.4,0,1,0,.683.433,4.237,4.237,0,0,1,4.71-1.519.4.4,0,1,0,.194-.785A5.286,5.286,0,0,0,271.814,227.3Z" transform="translate(-247.47 -196.539)" fill="#2ba8c2"/>
      <path id="Path_74748" data-name="Path 74748" d="M295.392,156.02a.4.4,0,1,0,.31-.747,5.932,5.932,0,0,0-6.221.661,7.584,7.584,0,0,0-2.014,2.376.4.4,0,1,0,.725.36,6.822,6.822,0,0,1,1.783-2.1A5.129,5.129,0,0,1,295.392,156.02Z" transform="translate(-263.372 -129.544)" fill="#2ba8c2"/>
      <path id="Path_74749" data-name="Path 74749" d="M337.9,88.194a.4.4,0,0,0,.26.509,6.078,6.078,0,0,0,1.715.248,4.22,4.22,0,0,0,2.158-.537,3.841,3.841,0,0,0,1.748-2.751.4.4,0,1,0-.795-.151,3.074,3.074,0,0,1-1.363,2.2,4.5,4.5,0,0,1-3.216.218A.4.4,0,0,0,337.9,88.194Z" transform="translate(-310.431 -64.715)" fill="#2ba8c2"/>
      <path id="Path_74750" data-name="Path 74750" d="M248.79,264.718a.729.729,0,1,0-.728-.729A.729.729,0,0,0,248.79,264.718Zm0-.809a.081.081,0,1,1-.081.081A.081.081,0,0,1,248.79,263.909Z" transform="translate(-226.664 -230.787)" fill="#2ba8c2"/>
      <path id="Path_74751" data-name="Path 74751" d="M333.809,68.718a.729.729,0,1,0-.729-.729A.729.729,0,0,0,333.809,68.718Zm0-.809a.081.081,0,1,1-.081.081A.081.081,0,0,1,333.809,67.909Z" transform="translate(-305.951 -48.001)" fill="#2ba8c2"/>
      <path id="Path_74752" data-name="Path 74752" d="M486.116,80.633a.729.729,0,1,0,.729.729A.729.729,0,0,0,486.116,80.633Zm0,.809a.081.081,0,1,1,.081-.081A.081.081,0,0,1,486.116,81.442Z" transform="translate(-447.989 -60.472)" fill="#2ba8c2"/>
      <path id="Path_74753" data-name="Path 74753" d="M234.289,213.949a.729.729,0,1,0-.728.729A.729.729,0,0,0,234.289,213.949Zm-.728.081a.081.081,0,1,1,.081-.081.081.081,0,0,1-.081.081Z" transform="translate(-212.46 -184.121)" fill="#2ba8c2"/>
      <path id="Path_74754" data-name="Path 74754" d="M468.323,230.812a.729.729,0,1,0,.729.729A.729.729,0,0,0,468.323,230.812Zm0,.809a.08.08,0,1,1,.081-.08A.081.081,0,0,1,468.323,231.621Z" transform="translate(-431.395 -200.526)" fill="#2ba8c2"/>
    </g>
  </g>
</svg>
