<svg xmlns="http://www.w3.org/2000/svg" width="11.5" height="11.5" viewBox="0 0 11.5 11.5">
  <g id="handbag" transform="translate(-16 -16)">
    <path id="Path_74741" data-name="Path 74741" d="M16.04,27.425a.192.192,0,0,0,.152.075H27.308a.192.192,0,0,0,.185-.24,30.441,30.441,0,0,1-.952-6.851.192.192,0,0,0-.192-.192h-.575v-.192a4.025,4.025,0,0,0-8.05,0v.192H17.15a.192.192,0,0,0-.192.192,30.442,30.442,0,0,1-.952,6.851A.192.192,0,0,0,16.04,27.425Zm7.627-7.784H19.833a.192.192,0,0,0-.192.192v.383h-.767v-.192a2.875,2.875,0,0,1,5.75,0v.192h-.767v-.383A.192.192,0,0,0,23.667,19.642Zm-.192.383V21.75a1.343,1.343,0,0,1-1.342,1.342h-.767a1.343,1.343,0,0,1-1.342-1.342V20.025Zm1.533,1.15h.383v.5l-.192.192-.192-.192ZM21.75,16.383a3.646,3.646,0,0,1,3.642,3.642v.767h-.383v-.767a3.258,3.258,0,0,0-6.517,0v.767h-.383v-.767A3.646,3.646,0,0,1,21.75,16.383Zm-3.642,4.792h.383v.5l-.192.192-.192-.192Zm-.77-.575h.386v1.15a.192.192,0,0,0,.056.136l.383.383a.192.192,0,0,0,.271,0l.383-.383a.192.192,0,0,0,.056-.136V20.6h.767v1.15a1.727,1.727,0,0,0,1.725,1.725h.767a1.727,1.727,0,0,0,1.725-1.725V20.6h.767v1.15a.192.192,0,0,0,.056.136l.383.383a.192.192,0,0,0,.271,0l.383-.383a.192.192,0,0,0,.056-.136V20.6h.386a31.318,31.318,0,0,0,.9,6.517H16.439A31.318,31.318,0,0,0,17.338,20.6Z" fill="#b2b2b2"/>
    <path id="Path_74742" data-name="Path 74742" d="M216.442,218.65h3.533a.442.442,0,0,0,.442-.442v-1.767a.442.442,0,0,0-.442-.442h-3.533a.442.442,0,0,0-.442.442v1.767A.442.442,0,0,0,216.442,218.65Zm.442-1.767h2.65v.883h-2.65Z" transform="translate(-196.458 -195.903)" fill="#b2b2b2"/>
  </g>
</svg>
