<svg xmlns="http://www.w3.org/2000/svg" width="18.353" height="20.281" viewBox="0 0 18.353 20.281">
  <g id="Icon_feather-share-2" data-name="Icon feather-share-2" transform="translate(-4 -2.5)">
    <path id="Path_1520" data-name="Path 1520" d="M28.284,5.892A2.892,2.892,0,1,1,25.392,3,2.892,2.892,0,0,1,28.284,5.892Z" transform="translate(-6.432 0)" fill="none" stroke="#000" stroke-linecap="round" stroke-linejoin="round" stroke-width="1"/>
    <path id="Path_1521" data-name="Path 1521" d="M10.284,16.392A2.892,2.892,0,1,1,7.392,13.5,2.892,2.892,0,0,1,10.284,16.392Z" transform="translate(0 -3.752)" fill="none" stroke="#000" stroke-linecap="round" stroke-linejoin="round" stroke-width="1"/>
    <path id="Path_1522" data-name="Path 1522" d="M28.284,26.892A2.892,2.892,0,1,1,25.392,24,2.892,2.892,0,0,1,28.284,26.892Z" transform="translate(-6.432 -7.504)" fill="none" stroke="#000" stroke-linecap="round" stroke-linejoin="round" stroke-width="1"/>
    <path id="Path_1523" data-name="Path 1523" d="M12.885,20.265,19.469,24.1" transform="translate(-2.996 -6.169)" fill="none" stroke="#000" stroke-linecap="round" stroke-linejoin="round" stroke-width="1"/>
    <path id="Path_1524" data-name="Path 1524" d="M19.46,9.765,12.885,13.6" transform="translate(-2.996 -2.417)" fill="none" stroke="#000" stroke-linecap="round" stroke-linejoin="round" stroke-width="1"/>
  </g>
</svg>
