<svg xmlns="http://www.w3.org/2000/svg" width="13.765" height="13.789" viewBox="0 0 13.765 13.789">
  <path id="Icon_feather-phone-call" data-name="Icon feather-phone-call" d="M11.041,3.934a3.043,3.043,0,0,1,2.4,2.4M11.041,1.5a5.477,5.477,0,0,1,4.838,4.832m-.609,4.856v1.826a1.217,1.217,0,0,1-1.327,1.217,12.043,12.043,0,0,1-5.252-1.868A11.867,11.867,0,0,1,5.041,8.711,12.043,12.043,0,0,1,3.173,3.435,1.217,1.217,0,0,1,4.384,2.109H6.209A1.217,1.217,0,0,1,7.427,3.155a7.814,7.814,0,0,0,.426,1.71,1.217,1.217,0,0,1-.274,1.284l-.773.773a9.737,9.737,0,0,0,3.651,3.651L11.23,9.8a1.217,1.217,0,0,1,1.284-.274,7.814,7.814,0,0,0,1.71.426A1.217,1.217,0,0,1,15.271,11.188Z" transform="translate(-2.667 -0.948)" fill="none" stroke="#8d8d8e" stroke-linecap="round" stroke-linejoin="round" stroke-width="1"/>
</svg>
