<svg xmlns="http://www.w3.org/2000/svg" width="24" height="24" viewBox="0 0 24 24">
  <g id="information-point" transform="translate(0)">
    <g id="Group_69484" data-name="Group 69484" transform="translate(0)">
      <g id="Group_69480" data-name="Group 69480" transform="translate(0)">
        <g id="Group_69479" data-name="Group 69479">
          <g id="Group_69478" data-name="Group 69478">
            <path id="Path_74874" data-name="Path 74874" d="M21.073,24H2.989a2.986,2.986,0,0,1-2.118-.865A2.927,2.927,0,0,1,0,21.042V2.958A2.962,2.962,0,0,1,2.958,0H21.042A2.962,2.962,0,0,1,24,2.958V21.042A2.946,2.946,0,0,1,21.073,24ZM2.958.7A2.258,2.258,0,0,0,.7,2.958V21.042a2.229,2.229,0,0,0,.663,1.594,2.287,2.287,0,0,0,1.623.662H21.073A2.242,2.242,0,0,0,23.3,21.042V2.958A2.258,2.258,0,0,0,21.042.7Z" transform="translate(0)"/>
          </g>
        </g>
      </g>
      <g id="Group_69483" data-name="Group 69483" transform="translate(1.642 1.642)">
        <g id="Group_69481" data-name="Group 69481" transform="translate(0 4.644)">
          <path id="Path_74875" data-name="Path 74875" d="M53.358,146.231h-18A1.353,1.353,0,0,1,34,144.886v-1.819a.35.35,0,0,1,.7,0v1.819a.656.656,0,0,0,.658.652h18a.656.656,0,0,0,.658-.652V130.506a.35.35,0,0,1,.7,0v14.381A1.353,1.353,0,0,1,53.358,146.231Z" transform="translate(-34 -130.159)"/>
        </g>
        <g id="Group_69482" data-name="Group 69482" transform="translate(0)">
          <path id="Path_74876" data-name="Path 74876" d="M34.35,50.079a.348.348,0,0,1-.35-.347V35.345A1.353,1.353,0,0,1,35.358,34h18a1.353,1.353,0,0,1,1.358,1.345V37.17a.35.35,0,0,1-.7,0V35.345a.656.656,0,0,0-.658-.652h-18a.656.656,0,0,0-.658.652V49.732A.348.348,0,0,1,34.35,50.079Z" transform="translate(-34 -34)"/>
        </g>
      </g>
    </g>
    <g id="Group_69487" data-name="Group 69487" transform="translate(8.749 4.315)">
      <g id="Group_69485" data-name="Group 69485" transform="translate(0 4.727)">
        <path id="Path_74877" data-name="Path 74877" d="M193.922,205.4h-3.965a1.27,1.27,0,0,1-1.268-1.268v-.679a1.27,1.27,0,0,1,1.268-1.268.088.088,0,0,0,.087-.087v-4.622a1.271,1.271,0,0,1-.906-1.216v-.233a1.27,1.27,0,0,1,1.268-1.268h2.158a1.27,1.27,0,0,1,1.268,1.268v6.042c0,.009,0,.019,0,.028a.088.088,0,0,0,.087.087,1.27,1.27,0,0,1,1.268,1.268v.679A1.27,1.27,0,0,1,193.922,205.4Zm-3.515-9.918a.545.545,0,0,0-.544.544v.233a.545.545,0,0,0,.544.544.362.362,0,0,1,.362.362v4.932a.813.813,0,0,1-.812.812.545.545,0,0,0-.544.544v.679a.545.545,0,0,0,.544.544h3.965a.545.545,0,0,0,.544-.544v-.679a.545.545,0,0,0-.544-.544.813.813,0,0,1-.811-.774.358.358,0,0,1,0-.038v-6.071a.545.545,0,0,0-.544-.544Z" transform="translate(-188.689 -194.755)"/>
      </g>
      <g id="Group_69486" data-name="Group 69486" transform="translate(1.005)">
        <path id="Path_74878" data-name="Path 74878" d="M211.529,100.941a2.033,2.033,0,1,1,2.033-2.033A2.035,2.035,0,0,1,211.529,100.941Zm0-3.342a1.309,1.309,0,1,0,1.309,1.309A1.31,1.31,0,0,0,211.529,97.6Z" transform="translate(-209.496 -96.875)"/>
      </g>
    </g>
  </g>
</svg>
