<svg id="log-out" xmlns="http://www.w3.org/2000/svg" width="15.337" height="15.337" viewBox="0 0 15.337 15.337">
  <path id="Path_45" data-name="Path 45" d="M9.586,8.308a.639.639,0,0,0-.639.639V11.5a.64.64,0,0,1-.639.639H6.39V2.556a1.288,1.288,0,0,0-.87-1.215l-.189-.063H8.308a.64.64,0,0,1,.639.639V3.834a.639.639,0,0,0,1.278,0V1.917A1.919,1.919,0,0,0,8.308,0H1.438a.5.5,0,0,0-.068.014C1.339.012,1.309,0,1.278,0A1.279,1.279,0,0,0,0,1.278v11.5A1.288,1.288,0,0,0,.87,14l3.846,1.282a1.323,1.323,0,0,0,.4.059A1.279,1.279,0,0,0,6.39,14.059V13.42H8.308A1.919,1.919,0,0,0,10.225,11.5V8.947a.639.639,0,0,0-.639-.639Z" fill="#fe6833"/>
  <path id="Path_46" data-name="Path 46" d="M19.842,7.743,17.286,5.187a.639.639,0,0,0-1.091.452V7.556H13.639a.639.639,0,1,0,0,1.278H16.2v1.917a.639.639,0,0,0,1.091.452l2.556-2.556a.638.638,0,0,0,0-.9Z" transform="translate(-4.692 -1.805)" fill="#fe6833"/>
</svg>
