<svg xmlns="http://www.w3.org/2000/svg" width="55" height="55" viewBox="0 0 55 55">
  <g id="mac" transform="translate(-37.333 -302)">
    <circle id="Ellipse_27" data-name="Ellipse 27" cx="27.5" cy="27.5" r="27.5" transform="translate(37.333 302)" fill="#f4f4f7"/>
    <g id="devices" transform="translate(50.298 316.124)">
      <g id="Group_103" data-name="Group 103">
        <g id="Group_102" data-name="Group 102">
          <path id="Path_181" data-name="Path 181" d="M26.516,0H9.769a1.4,1.4,0,0,0-1.4,1.4V11.63H2.326a1.4,1.4,0,0,0-1.4,1.4v9.3H.465A.465.465,0,0,0,0,22.794,2.329,2.329,0,0,0,2.326,25.12H17.212A2.324,2.324,0,0,0,19.538,22.8v0a.465.465,0,0,0-.465-.465h-.465V17.212h5.117a.465.465,0,1,0,0-.93h-2.44l-.664-2.326h5.9a1.4,1.4,0,0,0,1.4-1.4V1.4A1.4,1.4,0,0,0,26.516,0ZM1.861,13.025a.465.465,0,0,1,.465-.465H17.212a.465.465,0,0,1,.465.465v9.3H11.164a.465.465,0,0,0-.465.465H8.839a.465.465,0,0,0-.465-.465H1.861ZM18.2,23.779a1.4,1.4,0,0,1-.99.41H2.326a1.4,1.4,0,0,1-1.316-.93h6.9a.465.465,0,0,0,.465.465h2.791a.465.465,0,0,0,.465-.465h6.9A1.415,1.415,0,0,1,18.2,23.779Zm.406-7.5V13.956h1.045l.664,2.326Zm8.373-3.721a.465.465,0,0,1-.465.465H18.607a1.4,1.4,0,0,0-1.4-1.4H9.3V1.4A.465.465,0,0,1,9.769.93H26.516a.465.465,0,0,1,.465.465Z" fill="#3e81e8"/>
        </g>
      </g>
      <g id="Group_105" data-name="Group 105" transform="translate(20.468 17.677)">
        <g id="Group_104" data-name="Group 104">
          <path id="Path_182" data-name="Path 182" d="M357.117,304H353.4a1.4,1.4,0,0,0-1.4,1.4v7.443a1.4,1.4,0,0,0,1.4,1.4h3.721a1.4,1.4,0,0,0,1.4-1.4V305.4A1.4,1.4,0,0,0,357.117,304Zm.465,8.839a.465.465,0,0,1-.465.465H353.4a.465.465,0,0,1-.465-.465V305.4a.465.465,0,0,1,.465-.465h3.721a.465.465,0,0,1,.465.465Z" transform="translate(-352 -304)" fill="#3e81e8"/>
        </g>
      </g>
    </g>
  </g>
</svg>
