<svg xmlns="http://www.w3.org/2000/svg" width="55" height="55" viewBox="0 0 55 55">
  <g id="mobile" transform="translate(-211 -639)">
    <circle id="Ellipse_32" data-name="Ellipse 32" cx="27.5" cy="27.5" r="27.5" transform="translate(211 639)" fill="#f4f4f7"/>
    <g id="Smartphone" transform="translate(228.707 649.617)">
      <path id="Path_205" data-name="Path 205" d="M136.1,8H122.776A2.779,2.779,0,0,0,120,10.776V39.648a2.779,2.779,0,0,0,2.776,2.776H136.1a2.779,2.779,0,0,0,2.776-2.776V10.776A2.779,2.779,0,0,0,136.1,8Zm-2.9,1.11-.333,1.666h-6.863l-.333-1.666Zm4.564,30.537a1.668,1.668,0,0,1-1.666,1.666H122.776a1.668,1.668,0,0,1-1.666-1.666V10.776a1.668,1.668,0,0,1,1.666-1.666h1.766l.466,2.33a.555.555,0,0,0,.544.446h7.773a.555.555,0,0,0,.544-.446l.466-2.33H136.1a1.668,1.668,0,0,1,1.666,1.666Z" transform="translate(-120 -8)" fill="#d1bb2c"/>
      <path id="Path_206" data-name="Path 206" d="M155.887,456h-3.331a.555.555,0,1,0,0,1.11h3.331a.555.555,0,0,0,0-1.11Z" transform="translate(-149.779 -424.908)" fill="#d1bb2c"/>
      <path id="Path_207" data-name="Path 207" d="M225.11,456h-.555a.555.555,0,0,0,0,1.11h.555a.555.555,0,0,0,0-1.11Z" transform="translate(-216.782 -424.908)" fill="#d1bb2c"/>
    </g>
  </g>
</svg>
