<svg xmlns="http://www.w3.org/2000/svg" width="12.75" height="18.214" viewBox="0 0 12.75 18.214">
  <g id="noun_locked_3255340" transform="translate(61 1)" opacity="0.6">
    <g id="Group_31" data-name="Group 31" transform="translate(-61 -1)">
      <path id="Path_12" data-name="Path 12" d="M15.018,7.464V5.643a3.643,3.643,0,1,0-7.286,0V7.464A2.735,2.735,0,0,0,5,10.2v7.286a2.735,2.735,0,0,0,2.732,2.732h7.286a2.735,2.735,0,0,0,2.732-2.732V10.2A2.735,2.735,0,0,0,15.018,7.464ZM9.554,5.643a1.821,1.821,0,0,1,3.643,0V7.464H9.554Zm6.375,11.839a.912.912,0,0,1-.911.911H7.732a.912.912,0,0,1-.911-.911V10.2a.912.912,0,0,1,.911-.911h7.286a.912.912,0,0,1,.911.911ZM13.2,12.929a1.814,1.814,0,0,1-.911,1.569v2.074H10.464V14.5A1.818,1.818,0,1,1,13.2,12.929Z" transform="translate(-5 -2)" fill="#172546"/>
    </g>
  </g>
</svg>
