<svg xmlns="http://www.w3.org/2000/svg" width="24" height="24" viewBox="0 0 24 24">
  <g id="pprofile" transform="translate(-214 -420)">
    <g id="Rectangle_17970" data-name="Rectangle 17970" transform="translate(214 420)" fill="#fff" stroke="rgba(0,0,0,0.88)" stroke-width="1">
      <rect width="24" height="24" rx="5" stroke="none"/>
      <rect x="0.5" y="0.5" width="23" height="23" rx="4.5" fill="none"/>
    </g>
    <g id="profile_2_" data-name="profile (2)" transform="translate(222.676 423.728)">
      <path id="Path_74891" data-name="Path 74891" d="M90.5,8.757a4.379,4.379,0,1,0-4.379-4.379A4.379,4.379,0,0,0,90.5,8.757Zm0-8.015a3.637,3.637,0,1,1-3.637,3.637A3.636,3.636,0,0,1,90.5.742Zm0,0" transform="translate(-87.176)"/>
      <path id="Path_74892" data-name="Path 74892" d="M3.324,331.313a6.911,6.911,0,0,0-4.987,2.082,7.417,7.417,0,0,0-2.063,5.24.372.372,0,0,0,.371.371H10a.372.372,0,0,0,.371-.371A7.408,7.408,0,0,0,8.311,333.4a6.915,6.915,0,0,0-4.987-2.086Zm-6.3,6.95a6.627,6.627,0,0,1,1.841-4.345,6.183,6.183,0,0,1,4.457-1.859,6.182,6.182,0,0,1,4.457,1.859,6.609,6.609,0,0,1,1.841,4.345Zm0,0" transform="translate(0 -321.461)"/>
    </g>
  </g>
</svg>
