<svg xmlns="http://www.w3.org/2000/svg" width="24" height="24" viewBox="0 0 24 24">
  <g id="store" transform="translate(0 -25.998)">
    <g id="Group_69475" data-name="Group 69475" transform="translate(0 25.998)">
      <g id="Group_69474" data-name="Group 69474">
        <path id="Path_74824" data-name="Path 74824" d="M23.949,33.429l-2.256-4.947V26.52A.5.5,0,0,0,21.225,26H2.775a.5.5,0,0,0-.469.522v1.962L.051,33.429A.571.571,0,0,0,0,33.665v1.284a3.017,3.017,0,0,0,2.306,3.044V48.954h-.48a.525.525,0,0,0,0,1.043H22.173a.525.525,0,0,0,0-1.043h-.48V37.992A3.017,3.017,0,0,0,24,34.949V33.665A.57.57,0,0,0,23.949,33.429ZM3.244,27.041H20.756v1.044H3.244Zm11.529,6.571-.409-4.484h2.824l1.262,4.614v1.206a1.952,1.952,0,0,1-1.838,2.045,1.952,1.952,0,0,1-1.838-2.045V33.665Q14.775,33.639,14.773,33.612Zm-.935.079v1.257h0A1.952,1.952,0,0,1,12,36.994a1.952,1.952,0,0,1-1.838-2.045V33.692l.416-4.563h2.843Zm-4.2-4.563-.409,4.484c0,.017,0,.035,0,.053v1.284a1.952,1.952,0,0,1-1.837,2.045A1.952,1.952,0,0,1,5.55,34.949V33.743l1.262-4.614Zm-8.7,5.82V33.79l2.125-4.661h2.77l-1.2,4.385a.577.577,0,0,0-.02.152v1.284a1.952,1.952,0,0,1-1.838,2.045A1.952,1.952,0,0,1,.938,34.949ZM18.881,48.955H16.069V45.3h.469a.525.525,0,0,0,0-1.043h-.469V40.607h2.813Zm1.875,0h-.938v-8.87a.5.5,0,0,0-.469-.522H4.65a.5.5,0,0,0-.469.522v7.3a.5.5,0,0,0,.469.522H15.131v1.044H3.244V37.992a2.777,2.777,0,0,0,1.838-1.328,2.713,2.713,0,0,0,2.306,1.373,2.713,2.713,0,0,0,2.306-1.373,2.623,2.623,0,0,0,4.612,0,2.623,2.623,0,0,0,4.613,0,2.776,2.776,0,0,0,1.838,1.328V48.955ZM9.691,40.607h1.633l-.891.992a.564.564,0,0,0,0,.738.436.436,0,0,0,.663,0l1.554-1.73h2.482v6.261H5.119V45.7ZM5.119,44.22V40.607H8.365Zm17.944-9.271a1.952,1.952,0,0,1-1.837,2.045,1.952,1.952,0,0,1-1.838-2.045V33.665a.576.576,0,0,0-.02-.152l-1.2-4.385h2.769l2.125,4.661Z" transform="translate(0 -25.998)" fill="rgba(4,4,4,0.26)"/>
        <path id="Path_74825" data-name="Path 74825" d="M199.557,343.233a.412.412,0,0,0,.291-.12l.007-.007a.413.413,0,1,0-.582-.586l-.007.007a.413.413,0,0,0,.291.706Z" transform="translate(-189.763 -325.735)" fill="rgba(4,4,4,0.26)"/>
        <path id="Path_74826" data-name="Path 74826" d="M.423,466H.413a.413.413,0,1,0,0,.826h.01a.413.413,0,1,0,0-.826Z" transform="translate(0 -442.822)" fill="rgba(4,4,4,0.26)"/>
        <path id="Path_74827" data-name="Path 74827" d="M492.185,466h-.01a.413.413,0,1,0,0,.826h.01a.413.413,0,0,0,0-.826Z" transform="translate(-468.598 -442.826)" fill="rgba(4,4,4,0.26)"/>
      </g>
    </g>
  </g>
</svg>
