<svg xmlns="http://www.w3.org/2000/svg" width="28.001" height="27.966" viewBox="0 0 28.001 27.966">
  <g id="technical-support" transform="translate(0 -0.313)">
    <g id="Group_69477" data-name="Group 69477" transform="translate(0 0.313)">
      <path id="Path_74869" data-name="Path 74869" d="M401.967,37.252h-3.579a.41.41,0,0,0,0,.82h3.579a.41.41,0,0,0,0-.82Z" transform="translate(-376.213 -35.232)"/>
      <path id="Path_74870" data-name="Path 74870" d="M361.226,38.072h.436a.41.41,0,1,0,0-.82h-.436a.41.41,0,0,0,0,.82Z" transform="translate(-341.083 -35.232)"/>
      <path id="Path_74871" data-name="Path 74871" d="M361.226,73.3h5.611a.41.41,0,0,0,0-.82h-5.611a.41.41,0,0,0,0,.82Z" transform="translate(-341.083 -68.537)"/>
      <path id="Path_74872" data-name="Path 74872" d="M21.626,51.173a7.491,7.491,0,0,0-1.543-4.544l.076-1.4a1.668,1.668,0,0,0-1.667-1.76H14a.782.782,0,0,1-.332-.639V41.684a4.647,4.647,0,0,0,1.544-1.575h.794a1.667,1.667,0,0,0,1.665-1.665V35.381a1.321,1.321,0,0,0-.746-1.189v-2.15a1.777,1.777,0,0,0-1.775-1.775h-.046a.051.051,0,0,1-.051-.051,1.777,1.777,0,0,0-1.775-1.775H8.937a3.915,3.915,0,0,0-3.91,3.91v1.84a1.321,1.321,0,0,0-.746,1.189v1.558A1.323,1.323,0,0,0,5.6,38.261h.529a4.606,4.606,0,0,0,1.533,2.954,5.625,5.625,0,0,0,.619.465v1.15a.783.783,0,0,1-.333.639H3.462A1.668,1.668,0,0,0,1.8,45.228l.076,1.4A7.491,7.491,0,0,0,.328,51.173v1.545a1.291,1.291,0,0,0,.964,2.151h19.37a1.291,1.291,0,0,0,.964-2.151Zm-.82,0v1.12a1.3,1.3,0,0,0-.144-.008h-.886l.231-4.265A6.665,6.665,0,0,1,20.806,51.173ZM16.811,35.181a.5.5,0,0,1,.042.2v1.558a.5.5,0,0,1-.5.5h-.488V35.894l.253-.088A1.208,1.208,0,0,0,16.811,35.181Zm-2.738,4.752H13.043a.3.3,0,1,1,0-.6h1.029a.3.3,0,1,1,0,.6Zm1.936-.644h-.415a4.828,4.828,0,0,0,.237-1.028h.521a1.315,1.315,0,0,0,.5-.1v.283A.846.846,0,0,1,16.008,39.289ZM5.847,32.352a3.094,3.094,0,0,1,3.09-3.09h4.344a.956.956,0,0,1,.955.955.872.872,0,0,0,.871.871h.046a.956.956,0,0,1,.955.955v2.623a.389.389,0,0,1-.261.367l-.862.3a.053.053,0,0,1-.071-.05l0-1.63a1.9,1.9,0,0,0-2.669-1.726,4.36,4.36,0,0,1-2.538,0A1.9,1.9,0,0,0,7.039,33.65l0,1.631a.053.053,0,0,1-.071.05l-.862-.3a.389.389,0,0,1-.261-.367V32.352ZM5.1,36.939V35.381a.5.5,0,0,1,.042-.2,1.209,1.209,0,0,0,.695.626l.253.088V37.44H5.6a.5.5,0,0,1-.5-.5Zm1.817.848c-.014-.539-.005-1.112-.008-1.636.025,0,.051,0,.076,0a.874.874,0,0,0,.874-.875l0-1.632c0-.666.595-1.264,1.6-.941a5.164,5.164,0,0,0,3.04,0c.956-.307,1.6.234,1.6.943l0,1.631a.873.873,0,0,0,.95.871V37.82a4.046,4.046,0,0,1-.169,1.029,1.117,1.117,0,0,0-.8-.339H13.043a1.121,1.121,0,1,0,0,2.242h.521A4.2,4.2,0,0,1,11,41.669a4.022,4.022,0,0,1-4.08-3.882ZM9.1,42.829v-.718A5,5,0,0,0,11,42.489h.009a5,5,0,0,0,1.843-.374v.714a1.6,1.6,0,0,0,.133.639H8.971a1.6,1.6,0,0,0,.134-.639ZM1.947,48.02l.065,1.193a.41.41,0,1,0,.819-.044l-.216-3.985a.848.848,0,0,1,.848-.895h15.03a.848.848,0,0,1,.848.895l-.385,7.1H12.523a2.519,2.519,0,0,1,.614-1.27L13.149,51a2.914,2.914,0,0,0-.735-4.473.625.625,0,0,0-.935.543v1.861a.155.155,0,0,1-.155.155H10.63a.155.155,0,0,1-.155-.155V47.072a.625.625,0,0,0-.935-.543A2.914,2.914,0,0,0,8.807,51l.011.012a2.519,2.519,0,0,1,.614,1.27H3l-.066-1.213a.41.41,0,1,0-.819.044l.063,1.168H1.292a1.311,1.311,0,0,0-.144.008v-1.12a6.666,6.666,0,0,1,.8-3.153Zm8.314,4.265a3.335,3.335,0,0,0-.833-1.819l-.01-.011a2.092,2.092,0,0,1,.238-3.013v1.491a.976.976,0,0,0,.975.975h.694a.976.976,0,0,0,.975-.975V47.441a2.092,2.092,0,0,1,.237,3.015l-.009.01a3.335,3.335,0,0,0-.833,1.819Zm10.4,1.764H1.292a.472.472,0,1,1,0-.944h19.37a.472.472,0,1,1,0,.944Z" transform="translate(0 -26.903)"/>
      <path id="Path_74873" data-name="Path 74873" d="M336.929,3.12a.41.41,0,0,0,.41-.41V1.916a1.6,1.6,0,0,0-1.6-1.6h-6.9a1.6,1.6,0,0,0-1.6,1.6v3.45a1.6,1.6,0,0,0,1.6,1.6.287.287,0,0,1,.286.286V9.389a.677.677,0,0,0,1.258.348l1.577-2.629a.288.288,0,0,1,.246-.139h3.532a1.6,1.6,0,0,0,1.6-1.6V4.627a.41.41,0,0,0-.82,0v.739a.784.784,0,0,1-.783.783H332.2a1.112,1.112,0,0,0-.949.538l-1.311,2.186V7.256a1.108,1.108,0,0,0-1.107-1.107.784.784,0,0,1-.783-.783V1.916a.784.784,0,0,1,.783-.783h6.9a.784.784,0,0,1,.783.783V2.71a.41.41,0,0,0,.41.41Z" transform="translate(-309.339 -0.313)"/>
    </g>
  </g>
</svg>
