<svg xmlns="http://www.w3.org/2000/svg" width="18.958" height="12.189" viewBox="0 0 18.958 12.189">
  <g id="transfer" transform="translate(18.958 12.189) rotate(180)">
    <g id="Group_9" data-name="Group 9" transform="translate(0 0)">
      <path id="Path_4" data-name="Path 4" d="M18.754,5.6,13.44.206a.678.678,0,0,0-.973,0,.7.7,0,0,0,0,.988l4.139,4.2L.692,5.4a.7.7,0,0,0,0,1.405l15.915,0-4.139,4.192a.7.7,0,0,0,0,.988.685.685,0,0,0,.978,0l5.314-5.4A.709.709,0,0,0,18.754,5.6Z" fill="#fff"/>
    </g>
  </g>
</svg>
