<svg xmlns="http://www.w3.org/2000/svg" width="14" height="18" viewBox="0 0 14 18">
  <g id="noun_User_3255392" transform="translate(-5 -3)" opacity="0.6">
    <g id="Group_28" data-name="Group 28">
      <path id="Path_11" data-name="Path 11" d="M12,11A4,4,0,1,0,8,7a4,4,0,0,0,4,4Zm0-6a2,2,0,1,1-2,2A2,2,0,0,1,12,5Zm6.895,11.553-.211-.423a7.472,7.472,0,0,0-13.367,0l-.211.422A1,1,0,0,0,5,17v3a1,1,0,0,0,1,1H18a1,1,0,0,0,1-1V17a1,1,0,0,0-.106-.447ZM17,19H7V17.236l.106-.211a5.472,5.472,0,0,1,9.789,0l.105.211Z" fill="#172546"/>
    </g>
  </g>
</svg>
