<svg xmlns="http://www.w3.org/2000/svg" width="45" height="45" viewBox="0 0 45 45">
  <g id="w-price_TAG" data-name="w-price TAG" transform="translate(-159 -10)">
    <circle id="Ellipse_9" data-name="Ellipse 9" cx="22.5" cy="22.5" r="22.5" transform="translate(159 10)" fill="#ff7211"/>
    <g id="price-tag" transform="translate(115.568 18.999)">
      <path id="Path_74897" data-name="Path 74897" d="M74.805,19.1a.369.369,0,0,0,.369-.369V9.869A2.017,2.017,0,0,0,74.691,8.6L71.953,5.283a2.165,2.165,0,0,0-.487-.437c.011-.113.017-.227.017-.342V.37a.369.369,0,0,0-.738,0s0,4.169,0,4.187a1.827,1.827,0,0,0-.319-.028H65.651a1.9,1.9,0,0,0-.961.268l-.038.016-3.6,1.753a1.929,1.929,0,0,0-.9.944l-.006.013L58.663,11.3a.369.369,0,1,0,.687.271L60.835,7.8a1.186,1.186,0,0,1,.547-.574l1.9-.926-1.9,2.3a1.963,1.963,0,0,0-.434,1.269V22.616a2.639,2.639,0,0,0,.037.435l-3.8-1.685a1.712,1.712,0,0,1-.868-2.254l0-.011,2.406-5.979a.369.369,0,0,0-.685-.276l-2.4,5.973a2.451,2.451,0,0,0,1.247,3.222l4.46,1.976.017.006A2.523,2.523,0,0,0,63.485,25.2H72.59a2.618,2.618,0,0,0,2.584-2.584V20.45a.369.369,0,1,0-.738,0v2.166a1.87,1.87,0,0,1-1.846,1.846H63.485a1.824,1.824,0,0,1-1.8-1.846V9.869a1.219,1.219,0,0,1,.265-.8l2.738-3.317a1.261,1.261,0,0,1,.959-.486h4.774a1.087,1.087,0,0,1,.207.02,2.78,2.78,0,0,1-1.576,1.775,1.156,1.156,0,1,0,.154.733,3.517,3.517,0,0,0,2.081-2.145c.032.032.063.066.093.1L74.121,9.07a1.28,1.28,0,0,1,.315.8v8.859a.369.369,0,0,0,.369.369ZM68.063,8.072a.418.418,0,1,1,.418-.418A.419.419,0,0,1,68.063,8.072Z" fill="#fff"/>
      <path id="Path_74898" data-name="Path 74898" d="M239.952,263.038a.368.368,0,0,0,.261-.108l6.3-6.3a.369.369,0,0,0-.522-.522l-6.3,6.3A.372.372,0,0,0,239.952,263.038Z" transform="translate(-175.088 -243.4)" fill="#fff"/>
      <path id="Path_74899" data-name="Path 74899" d="M231.217,258.2a1.6,1.6,0,1,0,0-3.2h-.049a1.6,1.6,0,1,0,0,3.2Zm-.91-1.6a.862.862,0,0,1,.861-.861h.049a.861.861,0,1,1,0,1.723h-.049A.862.862,0,0,1,230.306,256.6Z" transform="translate(-165.566 -242.449)" fill="#fff"/>
      <path id="Path_74900" data-name="Path 74900" d="M329.168,337.2h.049a1.6,1.6,0,1,0,0-3.2h-.049a1.6,1.6,0,1,0,0,3.2Zm0-2.461h.049a.861.861,0,1,1,0,1.723h-.049a.861.861,0,1,1,0-1.723Z" transform="translate(-258.743 -317.561)" fill="#fff"/>
    </g>
  </g>
</svg>
